<?xml version="1.0" encoding="iso-8859-1"?>
<!-- Generator: Adobe Illustrator 19.0.0, SVG Export Plug-In . SVG Version: 6.00 Build 0)  -->
<svg version="1.1" id="Capa_1" xmlns="http://www.w3.org/2000/svg" xmlns:xlink="http://www.w3.org/1999/xlink" x="0px" y="0px"
	 viewBox="0 0 512 512" style="enable-background:new 0 0 512 512;" xml:space="preserve">
<g>
	<g>
		<path d="M53.333,21.333h320V0h-320c-17.673,0-32,14.327-32,32v384c-0.002,4.365,2.656,8.29,6.709,9.909l213.333,85.333
			c1.26,0.499,2.602,0.756,3.957,0.757c1.337-0.008,2.661-0.265,3.904-0.757l97.067-38.805l-7.915-19.808l-93.056,37.216
			L42.667,408.779V32C42.667,26.109,47.442,21.333,53.333,21.333z"/>
	</g>
</g>
<g>
	<g>
		<rect x="0" y="53.333" width="352" height="21.333"/>
	</g>
</g>
<g>
	<g>
		<path d="M339.627,401.248l-94.293,35.36l-160-60V96H64v288c-0.004,4.447,2.75,8.43,6.912,9.995l170.667,64
			c1.202,0.444,2.473,0.672,3.755,0.672c1.271-0.004,2.531-0.232,3.723-0.672l98.037-36.768L339.627,401.248z"/>
	</g>
</g>
<g>
	<g>
		<path d="M469.334,128H384c-5.891,0-10.667,4.776-10.667,10.667v362.667c0,5.891,4.776,10.667,10.667,10.667
			c0.442,0.003,0.884-0.025,1.323-0.085C418.069,507.819,480,482.507,480,416V138.667C480,132.776,475.225,128,469.334,128z
			 M458.667,416c0,49.045-42.528,66.539-64,72.245V149.333l64,0V416z"/>
	</g>
</g>
<g>
	<g>
		<path d="M490.667,128h-128c-11.782,0-21.333,9.551-21.333,21.333v21.333h21.333v-21.333h128v21.333H512v-21.333
			C512,137.551,502.449,128,490.667,128z"/>
	</g>
</g>
<g>
	<g>
		<rect x="416" y="266.667" width="21.333" height="170.667"/>
	</g>
</g>
<g>
	<g>
		<path d="M448,0h-42.667c-5.891,0-10.667,4.776-10.667,10.667v106.667H416v-96h21.333v96h21.333V10.667
			C458.667,4.776,453.891,0,448,0z"/>
	</g>
</g>
<g>
	<g>
		<rect x="373.334" y="74.667" width="106.667" height="21.333"/>
	</g>
</g>
<g>
	<g>
		<rect x="234.667" y="138.667" width="21.333" height="309.333"/>
	</g>
</g>
<g>
	<g>
		<rect x="192" y="128" width="106.667" height="21.333"/>
	</g>
</g>
<g>
	<g>
		<rect x="416" y="224" width="21.333" height="21.333"/>
	</g>
</g>
<g>
	<g>
		<rect x="416" y="181.333" width="21.333" height="21.333"/>
	</g>
</g>
<g>
</g>
<g>
</g>
<g>
</g>
<g>
</g>
<g>
</g>
<g>
</g>
<g>
</g>
<g>
</g>
<g>
</g>
<g>
</g>
<g>
</g>
<g>
</g>
<g>
</g>
<g>
</g>
<g>
</g>
</svg>
