<?xml version="1.0" encoding="iso-8859-1"?>
<!-- Generator: Adobe Illustrator 16.0.0, SVG Export Plug-In . SVG Version: 6.00 Build 0)  -->
<!DOCTYPE svg PUBLIC "-//W3C//DTD SVG 1.1//EN" "http://www.w3.org/Graphics/SVG/1.1/DTD/svg11.dtd">
<svg xmlns="http://www.w3.org/2000/svg" xmlns:xlink="http://www.w3.org/1999/xlink" version="1.1" id="Capa_1" x="0px" y="0px" width="512px" height="512px" viewBox="0 0 95.546 95.546" style="enable-background:new 0 0 95.546 95.546;" xml:space="preserve">
<g>
	<g>
		<path d="M65.947,27.213c-1.903-0.521-4.053-0.992-6.465-1.327c-1.527,2.193-7.984,3.764-11.698,3.764h-0.021    c-3.714,0-10.171-1.57-11.699-3.764c-2.412,0.335-4.561,0.806-6.465,1.327c8.529,3.114,14.647,11.286,14.647,20.88    c0,3.939-1.04,7.639-2.845,10.852h6.359h0.025h6.359c-1.806-3.213-2.846-6.91-2.846-10.852    C51.3,38.499,57.419,30.327,65.947,27.213z" fill="#006DF0"/>
		<g>
			<path d="M20.749,28.161C9.308,28.161,0,37.469,0,48.91c0,11.441,9.308,20.75,20.749,20.75s20.75-9.309,20.75-20.75     C41.499,37.469,32.19,28.161,20.749,28.161z M20.749,62.015c-7.226,0-13.104-5.878-13.104-13.105     c0-7.225,5.879-13.104,13.104-13.104c7.226,0,13.105,5.88,13.105,13.104C33.854,56.137,27.975,62.015,20.749,62.015z" fill="#006DF0"/>
			<path d="M12.287,42.303c-2.838,3.679-2.595,8.763,0.33,12.146c-1.038-3.455-0.462-7.341,1.91-10.417     c2.373-3.075,5.986-4.617,9.593-4.489C20.105,37.572,15.126,38.625,12.287,42.303z" fill="#006DF0"/>
			<path d="M74.797,28.161c-11.441,0-20.75,9.308-20.75,20.749c0,11.441,9.309,20.75,20.75,20.75s20.749-9.309,20.749-20.75     C95.546,37.469,86.238,28.161,74.797,28.161z M74.797,62.015c-7.227,0-13.105-5.878-13.105-13.105     c0-7.225,5.879-13.104,13.105-13.104S87.9,41.685,87.9,48.91C87.9,56.137,82.023,62.015,74.797,62.015z" fill="#006DF0"/>
			<path d="M71.426,39.543c3.607-0.128,7.221,1.414,9.594,4.489s2.947,6.961,1.91,10.417c2.924-3.383,3.168-8.466,0.329-12.146     C80.42,38.625,75.441,37.572,71.426,39.543z" fill="#006DF0"/>
		</g>
	</g>
</g>
<g>
</g>
<g>
</g>
<g>
</g>
<g>
</g>
<g>
</g>
<g>
</g>
<g>
</g>
<g>
</g>
<g>
</g>
<g>
</g>
<g>
</g>
<g>
</g>
<g>
</g>
<g>
</g>
<g>
</g>
</svg>
