<?xml version="1.0" encoding="iso-8859-1"?>
<!-- Generator: Adobe Illustrator 16.0.0, SVG Export Plug-In . SVG Version: 6.00 Build 0)  -->
<!DOCTYPE svg PUBLIC "-//W3C//DTD SVG 1.1//EN" "http://www.w3.org/Graphics/SVG/1.1/DTD/svg11.dtd">
<svg version="1.1" id="Capa_1" xmlns="http://www.w3.org/2000/svg" xmlns:xlink="http://www.w3.org/1999/xlink" x="0px" y="0px"
	 width="94.336px" height="94.336px" viewBox="0 0 94.336 94.336" style="enable-background:new 0 0 94.336 94.336;"
	 xml:space="preserve">
<g>
	<path d="M53.793,0c-7.745,0-14.045,6.3-14.045,14.044v41.869c0,2.341,1.898,4.239,4.24,4.239c2.341,0,4.24-1.897,4.24-4.239V14.044
		c0-3.068,2.496-5.565,5.565-5.565c3.067,0,5.563,2.497,5.563,5.565v15.377v26.492v17.754c0,6.722-5.467,12.188-12.188,12.188
		c-6.721,0-12.189-5.468-12.189-12.188V29.421c0-2.342-1.898-4.24-4.24-4.24c-2.341,0-4.24,1.898-4.24,4.24v44.246
		c0,11.397,9.272,20.669,20.669,20.669c11.397,0,20.669-9.271,20.669-20.669V55.913V29.421V14.044C67.837,6.3,61.537,0,53.793,0z"/>
</g>
<g>
</g>
<g>
</g>
<g>
</g>
<g>
</g>
<g>
</g>
<g>
</g>
<g>
</g>
<g>
</g>
<g>
</g>
<g>
</g>
<g>
</g>
<g>
</g>
<g>
</g>
<g>
</g>
<g>
</g>
</svg>
