<?xml version="1.0" encoding="iso-8859-1"?>
<!-- Generator: Adobe Illustrator 16.0.0, SVG Export Plug-In . SVG Version: 6.00 Build 0)  -->
<!DOCTYPE svg PUBLIC "-//W3C//DTD SVG 1.1//EN" "http://www.w3.org/Graphics/SVG/1.1/DTD/svg11.dtd">
<svg version="1.1" id="Capa_1" xmlns="http://www.w3.org/2000/svg" xmlns:xlink="http://www.w3.org/1999/xlink" x="0px" y="0px"
	 width="93.25px" height="93.25px" viewBox="0 0 93.25 93.25" style="enable-background:new 0 0 93.25 93.25;" xml:space="preserve"
	>
<g>
	<g>
		<path d="M86.076,19.863l-3.213-0.001L78.73,8.109H45.686L41.56,19.842l-9.638-0.004L7.174,19.863C3.211,19.863,0,23.076,0,27.037
			v50.929c0,3.961,3.211,7.175,7.174,7.175h78.902c3.963,0,7.174-3.214,7.174-7.175V27.037
			C93.25,23.076,90.039,19.863,86.076,19.863z M57.385,72.945c-12.281,0-22.236-9.955-22.236-22.236
			c0-12.281,9.955-22.235,22.236-22.235c12.281,0,22.236,9.955,22.236,22.235C79.621,62.99,69.666,72.945,57.385,72.945z"/>
		<path d="M23.363,17.227c0-2.506-2.031-4.535-4.537-4.535h-5.443c-2.505,0-4.536,2.029-4.536,4.535v0.605h14.517L23.363,17.227
			L23.363,17.227z"/>
		<path d="M57.385,38.479c-6.734,0-12.194,5.459-12.194,12.192c0,6.734,5.459,12.195,12.194,12.195s12.193-5.461,12.193-12.195
			C69.578,43.938,64.119,38.479,57.385,38.479z M57.385,50.671c-3.764,0-6.814-2.112-6.814-4.722c0-2.61,3.052-4.723,6.814-4.723
			c3.764,0,6.814,2.113,6.814,4.723C64.199,48.559,61.148,50.671,57.385,50.671z"/>
	</g>
</g>
<g>
</g>
<g>
</g>
<g>
</g>
<g>
</g>
<g>
</g>
<g>
</g>
<g>
</g>
<g>
</g>
<g>
</g>
<g>
</g>
<g>
</g>
<g>
</g>
<g>
</g>
<g>
</g>
<g>
</g>
</svg>
