<?xml version="1.0" encoding="iso-8859-1"?>
<!-- Generator: Adobe Illustrator 16.0.0, SVG Export Plug-In . SVG Version: 6.00 Build 0)  -->
<!DOCTYPE svg PUBLIC "-//W3C//DTD SVG 1.1//EN" "http://www.w3.org/Graphics/SVG/1.1/DTD/svg11.dtd">
<svg version="1.1" id="Capa_1" xmlns="http://www.w3.org/2000/svg" xmlns:xlink="http://www.w3.org/1999/xlink" x="0px" y="0px"
	 width="92.427px" height="92.427px" viewBox="0 0 92.427 92.427" style="enable-background:new 0 0 92.427 92.427;"
	 xml:space="preserve">
<g>
	<g>
		<path d="M83.816,27.412H70.291V0H22.136v27.412H8.61c-2.575,0-4.661,2.086-4.661,4.659v32.947c0,2.573,2.086,4.661,4.661,4.661
			h10.643v-7.616h2.883v30.364h48.155V62.062h2.883v7.617h10.643c2.575,0,4.661-2.088,4.661-4.66V32.071
			C88.478,29.498,86.392,27.412,83.816,27.412z M65.5,80.359l-5.418,7.276H26.926V62.062H65.5V80.359z M65.5,27.412H26.926V4.792
			H65.5V27.412z"/>
		<rect x="32.693" y="66.661" width="27.971" height="4.788"/>
		<rect x="32.693" y="76.447" width="27.971" height="4.793"/>
	</g>
</g>
<g>
</g>
<g>
</g>
<g>
</g>
<g>
</g>
<g>
</g>
<g>
</g>
<g>
</g>
<g>
</g>
<g>
</g>
<g>
</g>
<g>
</g>
<g>
</g>
<g>
</g>
<g>
</g>
<g>
</g>
</svg>
