<?xml version="1.0" encoding="iso-8859-1"?>
<!-- Generator: Adobe Illustrator 16.0.0, SVG Export Plug-In . SVG Version: 6.00 Build 0)  -->
<!DOCTYPE svg PUBLIC "-//W3C//DTD SVG 1.1//EN" "http://www.w3.org/Graphics/SVG/1.1/DTD/svg11.dtd">
<svg version="1.1" id="Capa_1" xmlns="http://www.w3.org/2000/svg" xmlns:xlink="http://www.w3.org/1999/xlink" x="0px" y="0px"
	 width="87.096px" height="87.096px" viewBox="0 0 87.096 87.096" style="enable-background:new 0 0 87.096 87.096;"
	 xml:space="preserve">
<g>
	<path d="M81.596,14.44H62.928V7.876c0-2.109-1.206-4.031-3.104-4.951c-1.898-0.918-4.154-0.67-5.81,0.639L35.523,18.193H16.569
		L15.174,11.3L1.246,8.977L0,16.446l8.785,1.463l9.32,44.965l-4.092,13.01h5.658c-0.32,0.772-0.5,1.627-0.5,2.522
		c0,3.486,2.656,6.313,5.934,6.313c3.278,0,5.932-2.826,5.932-6.313c0-0.896-0.18-1.75-0.496-2.522H61.83
		c-0.318,0.772-0.496,1.627-0.496,2.522c0,3.486,2.654,6.313,5.932,6.313c3.275,0,5.932-2.826,5.932-6.313
		c0-0.896-0.18-1.75-0.498-2.522h5.017v-7.57H24.332l0.766-2.43l53.035-22.191v-5.818v-1.178h3.463c3.037,0,5.5-2.463,5.5-5.5V19.94
		C87.096,16.902,84.633,14.44,81.596,14.44z M81.596,31.485H57.428v12.062L35.067,25.856L57.428,8.162v12.065h24.168V31.485z"/>
</g>
<g>
</g>
<g>
</g>
<g>
</g>
<g>
</g>
<g>
</g>
<g>
</g>
<g>
</g>
<g>
</g>
<g>
</g>
<g>
</g>
<g>
</g>
<g>
</g>
<g>
</g>
<g>
</g>
<g>
</g>
</svg>
